<svg viewBox="0 0 100 100" xmlns="http://www.w3.org/2000/svg">
  <circle cx="53" cy="67" r="25" fill="#000" fill-opacity="0.05"/>
  <g>
    <path d="M48,50 L52,50 L51,65 L49,65 Z" fill="#3D2B2A"/>
    <path d="M50,52 L58,45" stroke="#3D2B2A" stroke-width="2.5" stroke-linecap="round" opacity="0.6"/>
  </g>
  <g>
    <circle cx="50" cy="30" r="22" fill="#FB6F92"/>
    <circle cx="43.7" cy="26.7" r="18.7" fill="#FFC2D1"/>
    <circle cx="58.8" cy="34.8" r="2.2" fill="#C9184A" fill-opacity="0.2"/>
  </g>
  <g>
    <circle cx="32" cy="45" r="20" fill="#FB6F92"/>
    <circle cx="25.3" cy="42" r="17" fill="#FFC2D1"/>
    <circle cx="40" cy="51" r="2" fill="#C9184A" fill-opacity="0.2"/>
  </g>
  <g>
    <circle cx="68" cy="45" r="20" fill="#FB6F92"/>
    <circle cx="61.3" cy="42" r="17" fill="#FFC2D1"/>
    <circle cx="76" cy="51" r="2" fill="#C9184A" fill-opacity="0.2"/>
  </g>
  <g>
    <circle cx="42" cy="58" r="15" fill="#FB6F92"/>
    <circle cx="36.75" cy="55.75" r="12.75" fill="#FFC2D1"/>
    <circle cx="48" cy="64" r="1.5" fill="#C9184A" fill-opacity="0.2"/>
  </g>
  <g>
    <circle cx="58" cy="58" r="15" fill="#FB6F92"/>
    <circle cx="52.75" cy="55.75" r="12.75" fill="#FFC2D1"/>
    <circle cx="64" cy="64" r="1.5" fill="#C9184A" fill-opacity="0.2"/>
  </g>
</svg>
